<svg width="143" height="24" viewBox="0 0 143 24" fill="none" xmlns="http://www.w3.org/2000/svg">
<path fill-rule="evenodd" clip-rule="evenodd" d="M2.14645 1.14645C2.24021 1.05268 2.36739 1 2.5 1H17.5C17.7761 1 18 1.22386 18 1.5V17.5C18 17.6326 17.9473 17.7598 17.8536 17.8536L17 18.7071V21.2929L17.8536 22.1464C17.9966 22.2894 18.0393 22.5045 17.9619 22.6913C17.8846 22.8782 17.7022 23 17.5 23H2.5C2.36739 23 2.24021 22.9473 2.14645 22.8536L1.14645 21.8536C1.05268 21.7598 1 21.6326 1 21.5V2.5C1 2.36739 1.05268 2.24021 1.14645 2.14645L2.14645 1.14645ZM17 2H3V17H17V2ZM16.2929 18H2.70711L2 18.7071V21.2929L2.70711 22H16.2929L16.1464 21.8536C16.0527 21.7598 16 21.6326 16 21.5V18.5C16 18.3674 16.0527 18.2402 16.1464 18.1464L16.2929 18Z" fill="black"/>
<path fill-rule="evenodd" clip-rule="evenodd" d="M8 3.5C8 3.22386 8.22386 3 8.5 3H10.5C10.7761 3 11 3.22386 11 3.5V4H11.5C11.6326 4 11.7598 4.05268 11.8536 4.14645L12.8536 5.14645C12.9473 5.24021 13 5.36739 13 5.5V6H13.5C13.6326 6 13.7598 6.05268 13.8536 6.14645L14.8536 7.14645C14.9473 7.24021 15 7.36739 15 7.5V14.5C15 14.6326 14.9473 14.7598 14.8536 14.8536L14 15.7071V17.5C14 17.7761 13.7761 18 13.5 18H6.5C6.22386 18 6 17.7761 6 17.5V15.7071L4.14645 13.8536C4.05268 13.7598 4 13.6326 4 13.5V9.5C4 9.22386 4.22386 9 4.5 9H5.5C5.63261 9 5.75979 9.05268 5.85355 9.14645L6 9.29289V5.5C6 5.36739 6.05268 5.24021 6.14645 5.14645L7.14645 4.14645C7.24021 4.05268 7.36739 4 7.5 4H8V3.5ZM8 5H7.70711L7 5.70711V12.5C7 12.7761 6.77614 13 6.5 13C6.22386 13 6 12.7761 6 12.5V10.7071L5.29289 10H5V13.2929L6.85355 15.1464C6.94732 15.2402 7 15.3674 7 15.5V17H13V15.5C13 15.3674 13.0527 15.2402 13.1464 15.1464L14 14.2929V7.70711L13.2929 7H13V10.5C13 10.7761 12.7761 11 12.5 11C12.2239 11 12 10.7761 12 10.5V5.70711L11.2929 5H11V9.5C11 9.77614 10.7761 10 10.5 10C10.2239 10 10 9.77614 10 9.5V4H9V9.5C9 9.77614 8.77614 10 8.5 10C8.22386 10 8 9.77614 8 9.5V5Z" fill="black"/>
<path fill-rule="evenodd" clip-rule="evenodd" d="M58 18.5C58 18.2239 58.2239 18 58.5 18H61.5C61.7761 18 62 18.2239 62 18.5C62 18.7761 61.7761 19 61.5 19H59V20H61.5C61.7761 20 62 20.2239 62 20.5V22.5C62 22.7761 61.7761 23 61.5 23H58.5C58.2239 23 58 22.7761 58 22.5C58 22.2239 58.2239 22 58.5 22H61V21H58.5C58.2239 21 58 20.7761 58 20.5V18.5ZM63 18.5C63 18.2239 63.2239 18 63.5 18H65.5C65.7761 18 66 18.2239 66 18.5C66 18.7761 65.7761 19 65.5 19H65V22H65.5C65.7761 22 66 22.2239 66 22.5C66 22.7761 65.7761 23 65.5 23H63.5C63.2239 23 63 22.7761 63 22.5C63 22.2239 63.2239 22 63.5 22H64V19H63.5C63.2239 19 63 18.7761 63 18.5ZM67 18.5C67 18.2239 67.2239 18 67.5 18H69.5C69.6326 18 69.7598 18.0527 69.8536 18.1464L70.8536 19.1464C70.9473 19.2402 71 19.3674 71 19.5V21.5C71 21.6326 70.9473 21.7598 70.8536 21.8536L69.8536 22.8536C69.7598 22.9473 69.6326 23 69.5 23H67.5C67.2239 23 67 22.7761 67 22.5V18.5ZM68 19V22H69.2929L70 21.2929V19.7071L69.2929 19H68ZM72 18.5C72 18.2239 72.2239 18 72.5 18H75.5C75.7761 18 76 18.2239 76 18.5C76 18.7761 75.7761 19 75.5 19H73V20H74.5C74.7761 20 75 20.2239 75 20.5C75 20.7761 74.7761 21 74.5 21H73V22H75.5C75.7761 22 76 22.2239 76 22.5C76 22.7761 75.7761 23 75.5 23H72.5C72.2239 23 72 22.7761 72 22.5V18.5ZM80 18.5C80 18.2239 80.2239 18 80.5 18H83.5C83.7761 18 84 18.2239 84 18.5V19.5C84 19.6326 83.9473 19.7598 83.8536 19.8536L83.2071 20.5L83.8536 21.1464C83.9473 21.2402 84 21.3674 84 21.5V22.5C84 22.7761 83.7761 23 83.5 23H80.5C80.2239 23 80 22.7761 80 22.5V18.5ZM82.2929 20L83 19.2929V19H81V20H82.2929ZM81 21V22H83V21.7071L82.2929 21H81ZM85.5 18C85.7761 18 86 18.2239 86 18.5V20.2929L86.5 20.7929L87 20.2929V18.5C87 18.2239 87.2239 18 87.5 18C87.7761 18 88 18.2239 88 18.5V20.5C88 20.6326 87.9473 20.7598 87.8536 20.8536L87 21.7071V22.5C87 22.7761 86.7761 23 86.5 23C86.2239 23 86 22.7761 86 22.5V21.7071L85.1464 20.8536C85.0527 20.7598 85 20.6326 85 20.5V18.5C85 18.2239 85.2239 18 85.5 18ZM93 18.5C93 18.2239 93.2239 18 93.5 18H96.5C96.7761 18 97 18.2239 97 18.5C97 18.7761 96.7761 19 96.5 19H94V20H96.5C96.7761 20 97 20.2239 97 20.5V22.5C97 22.7761 96.7761 23 96.5 23H93.5C93.2239 23 93 22.7761 93 22.5C93 22.2239 93.2239 22 93.5 22H96V21H93.5C93.2239 21 93 20.7761 93 20.5V18.5ZM98 18.5C98 18.2239 98.2239 18 98.5 18H100.5C100.776 18 101 18.2239 101 18.5C101 18.7761 100.776 19 100.5 19H100V22H100.5C100.776 22 101 22.2239 101 22.5C101 22.7761 100.776 23 100.5 23H98.5C98.2239 23 98 22.7761 98 22.5C98 22.2239 98.2239 22 98.5 22H99V19H98.5C98.2239 19 98 18.7761 98 18.5ZM102 18.5C102 18.2239 102.224 18 102.5 18H104.5C104.633 18 104.76 18.0527 104.854 18.1464L105.854 19.1464C105.947 19.2402 106 19.3674 106 19.5V21.5C106 21.6326 105.947 21.7598 105.854 21.8536L104.854 22.8536C104.76 22.9473 104.633 23 104.5 23H102.5C102.224 23 102 22.7761 102 22.5V18.5ZM103 19V22H104.293L105 21.2929V19.7071L104.293 19H103ZM107 18.5C107 18.2239 107.224 18 107.5 18H110.5C110.776 18 111 18.2239 111 18.5C111 18.7761 110.776 19 110.5 19H108V20H109.5C109.776 20 110 20.2239 110 20.5C110 20.7761 109.776 21 109.5 21H108V22H110.5C110.776 22 111 22.2239 111 22.5C111 22.7761 110.776 23 110.5 23H107.5C107.224 23 107 22.7761 107 22.5V18.5ZM115 18.5C115 18.2239 115.224 18 115.5 18H118.5C118.776 18 119 18.2239 119 18.5C119 18.7761 118.776 19 118.5 19H116V20H117.5C117.776 20 118 20.2239 118 20.5C118 20.7761 117.776 21 117.5 21H116V22H118.5C118.776 22 119 22.2239 119 22.5C119 22.7761 118.776 23 118.5 23H115.5C115.224 23 115 22.7761 115 22.5V18.5ZM120 18.5C120 18.2239 120.224 18 120.5 18H122.5C122.633 18 122.76 18.0527 122.854 18.1464L123.854 19.1464C123.947 19.2402 124 19.3674 124 19.5V21.5C124 21.6326 123.947 21.7598 123.854 21.8536L122.854 22.8536C122.76 22.9473 122.633 23 122.5 23H120.5C120.224 23 120 22.7761 120 22.5V18.5ZM121 19V22H122.293L123 21.2929V19.7071L122.293 19H121ZM126 19H125.5C125.224 19 125 18.7761 125 18.5C125 18.2239 125.224 18 125.5 18H127.5C127.776 18 128 18.2239 128 18.5C128 18.7761 127.776 19 127.5 19H127V22H127.5C127.776 22 128 22.2239 128 22.5C128 22.7761 127.776 23 127.5 23H125.5C125.224 23 125 22.7761 125 22.5C125 22.2239 125.224 22 125.5 22H126V19ZM130 19H129.5C129.224 19 129 18.7761 129 18.5C129 18.2239 129.224 18 129.5 18H131.5C131.776 18 132 18.2239 132 18.5C132 18.7761 131.776 19 131.5 19H131V22.5C131 22.7761 130.776 23 130.5 23C130.224 23 130 22.7761 130 22.5V19ZM134.146 18.1464C134.24 18.0527 134.367 18 134.5 18H135.5C135.633 18 135.76 18.0527 135.854 18.1464L136.854 19.1464C136.947 19.2402 137 19.3674 137 19.5V21.5C137 21.6326 136.947 21.7598 136.854 21.8536L135.854 22.8536C135.76 22.9473 135.633 23 135.5 23H134.5C134.367 23 134.24 22.9473 134.146 22.8536L133.146 21.8536C133.053 21.7598 133 21.6326 133 21.5V19.5C133 19.3674 133.053 19.2402 133.146 19.1464L134.146 18.1464ZM134.707 19L134 19.7071V21.2929L134.707 22H135.293L136 21.2929V19.7071L135.293 19H134.707ZM139 19V20H140.293L141 19.2929V19H139ZM140.293 21H139V22.5C139 22.7761 138.776 23 138.5 23C138.224 23 138 22.7761 138 22.5V18.5C138 18.2239 138.224 18 138.5 18H141.5C141.776 18 142 18.2239 142 18.5V19.5C142 19.6326 141.947 19.7598 141.854 19.8536L141.207 20.5L141.854 21.1464C141.947 21.2402 142 21.3674 142 21.5V22.5C142 22.7761 141.776 23 141.5 23C141.224 23 141 22.7761 141 22.5V21.7071L140.293 21ZM76 20.5C76 20.2239 76.2239 20 76.5 20H78.5C78.7761 20 79 20.2239 79 20.5C79 20.7761 78.7761 21 78.5 21H76.5C76.2239 21 76 20.7761 76 20.5ZM89 20.5C89 20.2239 89.2239 20 89.5 20H91.5C91.7761 20 92 20.2239 92 20.5C92 20.7761 91.7761 21 91.5 21H89.5C89.2239 21 89 20.7761 89 20.5Z" fill="black"/>
<path fill-rule="evenodd" clip-rule="evenodd" d="M22 1.5C22 1.22386 22.2239 1 22.5 1H28.5C28.7761 1 29 1.22386 29 1.5V3.5C29 3.77614 28.7761 4 28.5 4H28V7H31V4H30.5C30.2239 4 30 3.77614 30 3.5V1.5C30 1.22386 30.2239 1 30.5 1H36.5C36.7761 1 37 1.22386 37 1.5V3.5C37 3.77614 36.7761 4 36.5 4H36V13H36.5C36.7761 13 37 13.2239 37 13.5V15.5647C37 15.8408 36.7761 16.0647 36.5 16.0647H30.5C30.2239 16.0647 30 15.8408 30 15.5647V13.5C30 13.2239 30.2239 13 30.5 13H31V10H28V13H28.5C28.7761 13 29 13.2239 29 13.5V15.5647C29 15.8408 28.7761 16.0647 28.5 16.0647H22.5C22.2239 16.0647 22 15.8408 22 15.5647V13.5C22 13.2239 22.2239 13 22.5 13H23V4H22.5C22.2239 4 22 3.77614 22 3.5V1.5ZM23 3H23.5C23.7761 3 24 3.22386 24 3.5V13.5C24 13.7761 23.7761 14 23.5 14H23V15.0647H28V14H27.5C27.2239 14 27 13.7761 27 13.5V9.5C27 9.22386 27.2239 9 27.5 9H31.5C31.7761 9 32 9.22386 32 9.5V13.5C32 13.7761 31.7761 14 31.5 14H31V15.0647H36V14H35.5C35.2239 14 35 13.7761 35 13.5V3.5C35 3.22386 35.2239 3 35.5 3H36V2H31V3H31.5C31.7761 3 32 3.22386 32 3.5V7.5C32 7.77614 31.7761 8 31.5 8H27.5C27.2239 8 27 7.77614 27 7.5V3.5C27 3.22386 27.2239 3 27.5 3H28V2H23V3Z" fill="black"/>
<path fill-rule="evenodd" clip-rule="evenodd" d="M40.1464 3.14645C40.2402 3.05268 40.3674 3 40.5 3H48.5C48.6326 3 48.7598 3.05268 48.8536 3.14645L50.8536 5.14645C50.9473 5.24021 51 5.36739 51 5.5V13H51.5C51.7761 13 52 13.2239 52 13.5V15.5C52 15.7761 51.7761 16 51.5 16H40.5C40.3674 16 40.2402 15.9473 40.1464 15.8536L38.1464 13.8536C38.0527 13.7598 38 13.6326 38 13.5V10.5C38 10.3674 38.0527 10.2402 38.1464 10.1464L40.1464 8.14645C40.2402 8.05268 40.3674 8 40.5 8H45.2929L46 7.29289V6.70711L45.2929 6H43.7071L42.8536 6.85355C42.7598 6.94732 42.6326 7 42.5 7H38.5C38.2239 7 38 6.77614 38 6.5V5.5C38 5.36739 38.0527 5.24021 38.1464 5.14645L40.1464 3.14645ZM51 14H50.5C50.2239 14 50 13.7761 50 13.5V5.70711L48.2929 4H40.7071L39 5.70711V6H42.2929L43.1464 5.14645C43.2402 5.05268 43.3674 5 43.5 5H45.5C45.6326 5 45.7598 5.05268 45.8536 5.14645L46.8536 6.14645C46.9473 6.24021 47 6.36739 47 6.5V7.5C47 7.63261 46.9473 7.75979 46.8536 7.85355L45.8536 8.85355C45.7598 8.94732 45.6326 9 45.5 9H40.7071L39 10.7071V13.2929L40.7071 15H51V14ZM43.1464 10.1464C43.2402 10.0527 43.3674 10 43.5 10H46.5C46.7761 10 47 10.2239 47 10.5V13.5C47 13.7761 46.7761 14 46.5 14H43.5C43.3674 14 43.2402 13.9473 43.1464 13.8536L42.1464 12.8536C42.0527 12.7598 42 12.6326 42 12.5V11.5C42 11.3674 42.0527 11.2402 42.1464 11.1464L43.1464 10.1464ZM43.7071 11L43 11.7071V12.2929L43.7071 13H46V11H43.7071Z" fill="black"/>
<path fill-rule="evenodd" clip-rule="evenodd" d="M53 3.5C53 3.22386 53.2239 3 53.5 3H58.5C58.7144 3 58.8973 3.13495 58.9683 3.32454L59.1464 3.14645C59.2402 3.05268 59.3674 3 59.5 3H64.5C64.6326 3 64.7598 3.05268 64.8536 3.14645L66.8536 5.14645C66.9473 5.24021 67 5.36739 67 5.5V13H67.5C67.7761 13 68 13.2239 68 13.5V15.5C68 15.7761 67.7761 16 67.5 16H61.5C61.2239 16 61 15.7761 61 15.5V13.5C61 13.2239 61.2239 13 61.5 13H62V6.70711L61.2929 6H60.7071L59 7.70711V13H59.5C59.7761 13 60 13.2239 60 13.5V15.5C60 15.7761 59.7761 16 59.5 16H53.5C53.2239 16 53 15.7761 53 15.5V13.5C53 13.2239 53.2239 13 53.5 13H54V6H53.5C53.2239 6 53 5.77614 53 5.5V3.5ZM54 5H54.5C54.7761 5 55 5.22386 55 5.5V13.5C55 13.7761 54.7761 14 54.5 14H54V15H59V14H58.5C58.2239 14 58 13.7761 58 13.5V7.5C58 7.36739 58.0527 7.24021 58.1464 7.14645L60.1464 5.14645C60.2402 5.05268 60.3674 5 60.5 5H61.5C61.6326 5 61.7598 5.05268 61.8536 5.14645L62.8536 6.14645C62.9473 6.24021 63 6.36739 63 6.5V13.5C63 13.7761 62.7761 14 62.5 14H62V15H67V14H66.5C66.2239 14 66 13.7761 66 13.5V5.70711L64.2929 4H59.7071L58.8536 4.85355C58.7106 4.99655 58.4955 5.03933 58.3087 4.96194C58.1218 4.88455 58 4.70223 58 4.5V4H54V5Z" fill="black"/>
<path fill-rule="evenodd" clip-rule="evenodd" d="M83 1.5C83 1.22386 82.7761 1 82.5 1H77.5C77.2239 1 77 1.22386 77 1.5V3.29289L76.8536 3.14645C76.7598 3.05268 76.6326 3 76.5 3H71.5C71.3674 3 71.2402 3.05268 71.1464 3.14645L69.1464 5.14645C69.0527 5.24021 69 5.36739 69 5.5V13.5C69 13.6326 69.0527 13.7598 69.1464 13.8536L71.1464 15.8536C71.2402 15.9473 71.3674 16 71.5 16H82.5C82.7761 16 83 15.7761 83 15.5V13.5C83 13.2239 82.7761 13 82.5 13H82V4H82.5C82.7761 4 83 3.77614 83 3.5V1.5ZM82 3H81.5C81.2239 3 81 3.22386 81 3.5V13.5C81 13.7761 81.2239 14 81.5 14H82V15H71.7071L70 13.2929V5.70711L71.7071 4H76.2929L77.1464 4.85355C77.2894 4.99655 77.5045 5.03933 77.6913 4.96194C77.8782 4.88455 78 4.70223 78 4.5V2H82V3ZM75.8536 5.14645C75.7598 5.05268 75.6326 5 75.5 5H74.5C74.3674 5 74.2402 5.05268 74.1464 5.14645L73.1464 6.14645C73.0527 6.24021 73 6.36739 73 6.5V12.5C73 12.6326 73.0527 12.7598 73.1464 12.8536L74.1464 13.8536C74.2402 13.9473 74.3674 14 74.5 14H77.5C77.7761 14 78 13.7761 78 13.5V7.5C78 7.36739 77.9473 7.24021 77.8536 7.14645L75.8536 5.14645ZM75.2929 6L77 7.70711V13H74.7071L74 12.2929V6.70711L74.7071 6H75.2929Z" fill="black"/>
<path fill-rule="evenodd" clip-rule="evenodd" d="M84 1.5C84 1.22386 84.2239 1 84.5 1H89.5C89.7761 1 90 1.22386 90 1.5V3.29289L90.1464 3.14645C90.2402 3.05268 90.3674 3 90.5 3H95.5C95.6326 3 95.7598 3.05268 95.8536 3.14645L97.8536 5.14645C97.9473 5.24021 98 5.36739 98 5.5V13.5C98 13.6326 97.9473 13.7598 97.8536 13.8536L95.8536 15.8536C95.7598 15.9473 95.6326 16 95.5 16H84.5C84.2239 16 84 15.7761 84 15.5V13.5C84 13.2239 84.2239 13 84.5 13H85V4H84.5C84.2239 4 84 3.77614 84 3.5V1.5ZM85 3H85.5C85.7761 3 86 3.22386 86 3.5V13.5C86 13.7761 85.7761 14 85.5 14H85V15H95.2929L97 13.2929V5.70711L95.2929 4H90.7071L89.8536 4.85355C89.7106 4.99655 89.4955 5.03933 89.3087 4.96194C89.1218 4.88455 89 4.70223 89 4.5V2H85V3ZM91.1464 5.14645C91.2402 5.05268 91.3674 5 91.5 5H92.5C92.6326 5 92.7598 5.05268 92.8536 5.14645L93.8536 6.14645C93.9473 6.24021 94 6.36739 94 6.5V12.5C94 12.6326 93.9473 12.7598 93.8536 12.8536L92.8536 13.8536C92.7598 13.9473 92.6326 14 92.5 14H89.5C89.2239 14 89 13.7761 89 13.5V7.5C89 7.36739 89.0527 7.24021 89.1464 7.14645L91.1464 5.14645ZM91.7071 6L90 7.70711V13H92.2929L93 12.2929V6.70711L92.2929 6H91.7071Z" fill="black"/>
<path fill-rule="evenodd" clip-rule="evenodd" d="M127 1.5C127 1.22386 127.224 1 127.5 1H132.5C132.776 1 133 1.22386 133 1.5V7.29289L134.325 5.96835C134.135 5.89729 134 5.7144 134 5.5V3.5C134 3.22386 134.224 3 134.5 3H140.5C140.776 3 141 3.22386 141 3.5V5.5C141 5.77614 140.776 6 140.5 6H139.707L137.207 8.5L140.854 12.1464C140.947 12.2402 141 12.3674 141 12.5V13H141.5C141.776 13 142 13.2239 142 13.5V15.5C142 15.7761 141.776 16 141.5 16H135.5C135.224 16 135 15.7761 135 15.5V13.5C135 13.2239 135.224 13 135.5 13H136V12.7071L134 10.7071L133 11.7071V13H133.5C133.776 13 134 13.2239 134 13.5V15.5C134 15.7761 133.776 16 133.5 16H127.5C127.224 16 127 15.7761 127 15.5V13.5C127 13.2239 127.224 13 127.5 13H128V4H127.5C127.224 4 127 3.77614 127 3.5V1.5ZM128 3H128.5C128.776 3 129 3.22386 129 3.5V13.5C129 13.7761 128.776 14 128.5 14H128V15H133V14H132.5C132.224 14 132 13.7761 132 13.5V11.5C132 11.3674 132.053 11.2402 132.146 11.1464L133.646 9.64645C133.842 9.45118 134.158 9.45118 134.354 9.64645L136.854 12.1464C136.947 12.2402 137 12.3674 137 12.5V13.5C137 13.7761 136.776 14 136.5 14H136V15H141V14H140.5C140.224 14 140 13.7761 140 13.5V12.7071L136.146 8.85355C135.951 8.65829 135.951 8.34171 136.146 8.14645L139.146 5.14645C139.24 5.05268 139.367 5 139.5 5H140V4H135V5H135.5C135.702 5 135.885 5.12182 135.962 5.30866C136.039 5.4955 135.997 5.71055 135.854 5.85355L132.854 8.85355C132.711 8.99655 132.495 9.03933 132.309 8.96194C132.122 8.88455 132 8.70223 132 8.5V2H128V3Z" fill="black"/>
<path fill-rule="evenodd" clip-rule="evenodd" d="M101.146 3.14645C101.24 3.05268 101.367 3 101.5 3H109.5C109.633 3 109.76 3.05268 109.854 3.14645L111.854 5.14645C111.947 5.24021 112 5.36739 112 5.5V13.5C112 13.6326 111.947 13.7598 111.854 13.8536L109.854 15.8536C109.76 15.9473 109.633 16 109.5 16H101.5C101.367 16 101.24 15.9473 101.146 15.8536L99.1464 13.8536C99.0527 13.7598 99 13.6326 99 13.5V5.5C99 5.36739 99.0527 5.24021 99.1464 5.14645L101.146 3.14645ZM101.707 4L100 5.70711V13.2929L101.707 15H109.293L111 13.2929V5.70711L109.293 4H101.707ZM104.146 5.14645C104.24 5.05268 104.367 5 104.5 5H107.5C107.776 5 108 5.22386 108 5.5V12.5C108 12.6326 107.947 12.7598 107.854 12.8536L106.854 13.8536C106.76 13.9473 106.633 14 106.5 14H103.5C103.224 14 103 13.7761 103 13.5V6.5C103 6.36739 103.053 6.24021 103.146 6.14645L104.146 5.14645ZM104.707 6L104 6.70711V13H106.293L107 12.2929V6H104.707Z" fill="black"/>
<path fill-rule="evenodd" clip-rule="evenodd" d="M115.146 3.14645C115.24 3.05268 115.367 3 115.5 3H123.5C123.633 3 123.76 3.05268 123.854 3.14645L125.854 5.14645C125.947 5.24021 126 5.36739 126 5.5V13.5C126 13.6326 125.947 13.7598 125.854 13.8536L123.854 15.8536C123.76 15.9473 123.633 16 123.5 16H115.5C115.367 16 115.24 15.9473 115.146 15.8536L113.146 13.8536C113.053 13.7598 113 13.6326 113 13.5V5.5C113 5.36739 113.053 5.24021 113.146 5.14645L115.146 3.14645ZM115.707 4L114 5.70711V13.2929L115.707 15H123.293L125 13.2929V5.70711L123.293 4H115.707ZM118.146 5.14645C118.24 5.05268 118.367 5 118.5 5H121.5C121.776 5 122 5.22386 122 5.5V12.5C122 12.6326 121.947 12.7598 121.854 12.8536L120.854 13.8536C120.76 13.9473 120.633 14 120.5 14H117.5C117.224 14 117 13.7761 117 13.5V6.5C117 6.36739 117.053 6.24021 117.146 6.14645L118.146 5.14645ZM118.707 6L118 6.70711V13H120.293L121 12.2929V6H118.707Z" fill="black"/>
<path fill-rule="evenodd" clip-rule="evenodd" d="M22 18.5C22 18.2239 22.2239 18 22.5 18H25.5C25.7761 18 26 18.2239 26 18.5C26 18.7761 25.7761 19 25.5 19H23V22H25.5C25.7761 22 26 22.2239 26 22.5C26 22.7761 25.7761 23 25.5 23H22.5C22.2239 23 22 22.7761 22 22.5V18.5ZM27.5 18C27.7761 18 28 18.2239 28 18.5V22H29.5C29.7761 22 30 22.2239 30 22.5C30 22.7761 29.7761 23 29.5 23H27.5C27.2239 23 27 22.7761 27 22.5V18.5C27 18.2239 27.2239 18 27.5 18ZM31 18.5C31 18.2239 31.2239 18 31.5 18H34.5C34.7761 18 35 18.2239 35 18.5V22.5C35 22.7761 34.7761 23 34.5 23C34.2239 23 34 22.7761 34 22.5V21H32V22.5C32 22.7761 31.7761 23 31.5 23C31.2239 23 31 22.7761 31 22.5V18.5ZM32 20H34V19H32V20ZM36 18.5C36 18.2239 36.2239 18 36.5 18H39.5C39.7761 18 40 18.2239 40 18.5C40 18.7761 39.7761 19 39.5 19H37V20H39.5C39.7761 20 40 20.2239 40 20.5V22.5C40 22.7761 39.7761 23 39.5 23H36.5C36.2239 23 36 22.7761 36 22.5C36 22.2239 36.2239 22 36.5 22H39V21H36.5C36.2239 21 36 20.7761 36 20.5V18.5ZM41 18.5C41 18.2239 41.2239 18 41.5 18H44.5C44.7761 18 45 18.2239 45 18.5C45 18.7761 44.7761 19 44.5 19H42V20H44.5C44.7761 20 45 20.2239 45 20.5V22.5C45 22.7761 44.7761 23 44.5 23H41.5C41.2239 23 41 22.7761 41 22.5C41 22.2239 41.2239 22 41.5 22H44V21H41.5C41.2239 21 41 20.7761 41 20.5V18.5ZM46 18.5C46 18.2239 46.2239 18 46.5 18H48.5C48.7761 18 49 18.2239 49 18.5C49 18.7761 48.7761 19 48.5 19H48V22H48.5C48.7761 22 49 22.2239 49 22.5C49 22.7761 48.7761 23 48.5 23H46.5C46.2239 23 46 22.7761 46 22.5C46 22.2239 46.2239 22 46.5 22H47V19H46.5C46.2239 19 46 18.7761 46 18.5ZM50 18.5C50 18.2239 50.2239 18 50.5 18H53.5C53.7761 18 54 18.2239 54 18.5C54 18.7761 53.7761 19 53.5 19H51V22H53.5C53.7761 22 54 22.2239 54 22.5C54 22.7761 53.7761 23 53.5 23H50.5C50.2239 23 50 22.7761 50 22.5V18.5Z" fill="black"/>
</svg>
